<svg xmlns="http://www.w3.org/2000/svg" viewBox="0 0 1200 1200"><g fill="#275858"><path d="M336.706 612.534H114.168C78.776 612.534 50 641.309 50 676.703v222.536c0 35.393 28.776 64.169 64.168 64.169h222.538c35.392 0 64.169-28.776 64.169-64.169V676.703c0-35.394-28.777-64.169-64.169-64.169zm38.502 286.705c0 21.231-17.272 38.501-38.501 38.501H114.168c-21.231 0-38.501-17.271-38.501-38.501V676.703c0-21.232 17.271-38.501 38.501-38.501h222.538c21.229 0 38.501 17.27 38.501 38.501v222.536z"/><path d="M298.128 775.613H183.727l34.466-34.466c5.014-5.013 5.014-13.134 0-18.148-5.014-5.013-13.135-5.013-18.148 0l-56.339 56.34a12.91 12.91 0 0 0-1.647 2.007c-.158.239-.263.499-.404.746-.274.476-.556.944-.767 1.455-.162.389-.25.796-.371 1.196-.12.397-.271.78-.354 1.192a12.9 12.9 0 0 0 .002 5.022c.081.411.232.791.35 1.187.12.402.211.81.373 1.201.211.511.493.979.767 1.455.141.247.246.507.404.746.483.725 1.033 1.4 1.649 2.011l55.385 55.384a12.79 12.79 0 0 0 9.073 3.761c3.284 0 6.567-1.254 9.075-3.761 5.011-5.013 5.011-13.134 0-18.148l-33.514-33.513h114.401c7.095 0 12.835-5.74 12.835-12.834 0-7.093-5.74-12.833-12.835-12.833zm413.14-163.079H488.732c-35.394 0-64.171 28.775-64.171 64.169v222.536c0 35.393 28.777 64.169 64.171 64.169h222.536c35.394 0 64.17-28.776 64.17-64.169V676.703c0-35.394-28.776-64.169-64.17-64.169zm38.502 286.705c0 21.231-17.271 38.501-38.501 38.501H488.732c-21.231 0-38.501-17.271-38.501-38.501V676.703c0-21.232 17.271-38.501 38.501-38.501h222.536c21.231 0 38.501 17.27 38.501 38.501v222.536z"/><path d="M646.824 796.167l-33.515 33.513V715.279c0-7.094-5.739-12.834-12.832-12.834-7.095 0-12.835 5.74-12.835 12.834v114.395l-34.466-34.484c-5.013-5.013-13.135-5.013-18.148 0-5.014 5.014-5.014 13.135 0 18.148l56.339 56.366a12.89 12.89 0 0 0 1.983 1.631c.064.044.141.07.207.112.631.406 1.289.772 1.989 1.063.215.09.447.129.666.207.566.199 1.124.405 1.725.524a12.77 12.77 0 0 0 5.078 0c.599-.12 1.165-.326 1.73-.527.218-.078.449-.116.66-.204a12.757 12.757 0 0 0 2.021-1.081c.057-.035.119-.058.176-.094a12.936 12.936 0 0 0 1.982-1.632l55.388-55.388c5.013-5.013 5.013-13.134 0-18.148-5.014-5.013-13.137-5.013-18.148 0zm64.444-559.575H488.732c-35.394 0-64.171 28.776-64.171 64.17v222.561c0 35.393 28.777 64.17 64.171 64.17h222.536c35.394 0 64.17-28.776 64.17-64.17V300.762c0-35.394-28.776-64.17-64.17-64.17zm38.502 286.731c0 21.232-17.271 38.501-38.501 38.501H488.732c-21.231 0-38.501-17.27-38.501-38.501V300.762c0-21.232 17.271-38.501 38.501-38.501h222.536c21.231 0 38.501 17.27 38.501 38.501v222.561z"/><path d="M553.176 403.833l33.488-33.506v114.419c0 7.094 5.74 12.834 12.835 12.834 7.092 0 12.832-5.74 12.832-12.834V370.32l34.492 34.491a12.787 12.787 0 0 0 9.073 3.76c3.284 0 6.567-1.253 9.075-3.76 5.013-5.013 5.013-13.135 0-18.148l-56.368-56.367a12.788 12.788 0 0 0-9.104-3.791 12.785 12.785 0 0 0-9.105 3.791l-55.366 55.389c-5.014 5.014-5.014 13.135 0 18.148 5.013 5.014 13.135 5.014 18.148 0zm532.655 208.701H863.294c-35.394 0-64.169 28.775-64.169 64.169v222.536c0 35.393 28.775 64.169 64.169 64.169h222.537c35.392 0 64.169-28.776 64.169-64.169V676.703c0-35.394-28.777-64.169-64.169-64.169zm38.501 286.705c0 21.231-17.27 38.501-38.501 38.501H863.294c-21.232 0-38.501-17.271-38.501-38.501V676.703c0-21.232 17.27-38.501 38.501-38.501h222.537c21.232 0 38.501 17.27 38.501 38.501v222.536z"/><path d="M1059.102 792.4c.091-.221.133-.459.211-.686.198-.559.401-1.114.519-1.705.167-.829.255-1.679.255-2.54 0-.86-.088-1.709-.255-2.539-.12-.599-.326-1.165-.527-1.731-.077-.218-.115-.448-.204-.659a12.795 12.795 0 0 0-1.081-2.021c-.036-.056-.059-.119-.095-.174a12.954 12.954 0 0 0-1.632-1.983L1000.906 723c-5.014-5.013-13.135-5.013-18.148 0-5.014 5.014-5.014 13.135 0 18.148l33.506 33.488H901.872c-7.095 0-12.835 5.74-12.835 12.834 0 7.094 5.74 12.834 12.835 12.834h114.401l-34.493 34.491c-5.011 5.014-5.011 13.135 0 18.148a12.794 12.794 0 0 0 9.075 3.761c3.283 0 6.568-1.254 9.073-3.761l56.366-56.364a12.906 12.906 0 0 0 1.632-1.983c.045-.066.071-.142.113-.209.405-.631.771-1.288 1.063-1.987zm-.568-118.38H923.202c-3.535 0-6.417 2.883-6.417 6.417s2.882 6.417 6.417 6.417h135.333c3.534 0 6.416-2.883 6.416-6.417-.001-3.534-2.883-6.417-6.417-6.417zm-900.75 12.834h135.307c3.534 0 6.416-2.883 6.416-6.417s-2.882-6.417-6.416-6.417H157.784c-3.534 0-6.416 2.883-6.416 6.417s2.882 6.417 6.416 6.417zm510.37-164.083H532.822c-3.534 0-6.416 2.883-6.416 6.418 0 3.534 2.882 6.417 6.416 6.417h135.331c3.534 0 6.418-2.883 6.418-6.417 0-3.535-2.883-6.418-6.417-6.418z"/></g></svg>